{
  "accessors": [
    {
      "bufferView": 3,
      "componentType": 5126,
      "count": 1018,
      "max": [
        198.0509796142578,
        375.8279113769531,
        85.7792739868164
      ],
      "min": [
        -297.3188171386719,
        0.42154157161712646,
        -246.4704132080078
      ],
      "type": "VEC3"
    },
    {
      "bufferView": 3,
      "byteOffset": 12216,
      "componentType": 5126,
      "count": 1018,
      "max": [
        0.9998953938484192,
        1.0,
        0.9995980262756348
      ],
      "min": [
        -0.999895453453064,
        -1.0,
        -0.9995943903923035
      ],
      "type": "VEC3"
    },
    {
      "bufferView": 2,
      "componentType": 5126,
      "count": 1018,
      "max": [
        2.1713485717773438,
        1.2493027448654175
      ],
      "min": [
        -0.6850126385688782,
        0.0004995167255401611
      ],
      "type": "VEC2"
    },
    {
      "bufferView": 1,
      "componentType": 5125,
      "count": 1680,
      "type": "SCALAR"
    },
    {
      "bufferView": 3,
      "byteOffset": 24432,
      "componentType": 5126,
      "count": 264,
      "max": [
        180.5233917236328,
        238.65733337402344,
        66.7494125366211
      ],
      "min": [
        -182.9158935546875,
        -1.8465303242010123e-07,
        -11.247930526733398
      ],
      "type": "VEC3"
    },
    {
      "bufferView": 3,
      "byteOffset": 27600,
      "componentType": 5126,
      "count": 264,
      "max": [
        0.9997019171714783,
        1.0,
        0.9995903372764587
      ],
      "min": [
        -0.9995903372764587,
        -0.6389923095703125,
        -0.9995903372764587
      ],
      "type": "VEC3"
    },
    {
      "bufferView": 2,
      "byteOffset": 8144,
      "componentType": 5126,
      "count": 264,
      "max": [
        0.9971215724945068,
        0.9978713989257813
      ],
      "min": [
        0.006310869473963976,
        0.008216824382543564
      ],
      "type": "VEC2"
    },
    {
      "bufferView": 1,
      "byteOffset": 6720,
      "componentType": 5125,
      "count": 444,
      "type": "SCALAR"
    },
    {
      "bufferView": 5,
      "componentType": 5126,
      "count": 2,
      "max": [
        1.6539853811264038,
        1.3729120382777182e-06,
        0.0,
        0.0,
        2.2498971873531297e-22,
        2.0408172607421875,
        2.3436373339791317e-06,
        0.0,
        1.1955187320709229,
        0.0,
        1.6539860963821411,
        0.0,
        177.41355895996094,
        0.0,
        68.10115814208984,
        1.0
      ],
      "min": [
        1.0,
        0.0,
        -1.1955193281173706,
        0.0,
        0.0,
        1.0,
        0.0,
        0.0,
        0.0,
        -1.8994069250766188e-06,
        1.0,
        0.0,
        0.0,
        -2.85788893699646,
        0.0,
        1.0
      ],
      "type": "MAT4"
    },
    {
      "bufferView": 0,
      "componentType": 5123,
      "count": 1018,
      "type": "VEC4"
    },
    {
      "bufferView": 4,
      "componentType": 5126,
      "count": 1018,
      "max": [
        1.0,
        0.0,
        0.0,
        0.0
      ],
      "min": [
        1.0,
        0.0,
        0.0,
        0.0
      ],
      "type": "VEC4"
    },
    {
      "bufferView": 0,
      "byteOffset": 8144,
      "componentType": 5123,
      "count": 264,
      "type": "VEC4"
    },
    {
      "bufferView": 4,
      "byteOffset": 16288,
      "componentType": 5126,
      "count": 264,
      "max": [
        1.0,
        0.0,
        0.0,
        0.0
      ],
      "min": [
        1.0,
        0.0,
        0.0,
        0.0
      ],
      "type": "VEC4"
    }
  ],
  "asset": {
    "extras": {
      "author": "BytesCrafter (https://sketchfab.com/BytesCrafter)",
      "license": "CC-BY-4.0 (http://creativecommons.org/licenses/by/4.0/)",
      "source": "https://sketchfab.com/3d-models/medieval-ruin-entrance-711292d5a5c343ceb675782b24f213ee",
      "title": "Medieval Ruin Entrance"
    },
    "generator": "Sketchfab-14.70.0",
    "version": "2.0"
  },
  "bufferViews": [
    {
      "buffer": 0,
      "byteLength": 10256,
      "byteStride": 8,
      "name": "shortBufferViews",
      "target": 34962
    },
    {
      "buffer": 0,
      "byteLength": 8496,
      "byteOffset": 10256,
      "name": "floatBufferViews",
      "target": 34963
    },
    {
      "buffer": 0,
      "byteLength": 10256,
      "byteOffset": 18752,
      "byteStride": 8,
      "name": "floatBufferViews",
      "target": 34962
    },
    {
      "buffer": 0,
      "byteLength": 30768,
      "byteOffset": 29008,
      "byteStride": 12,
      "name": "floatBufferViews",
      "target": 34962
    },
    {
      "buffer": 0,
      "byteLength": 20512,
      "byteOffset": 59776,
      "byteStride": 16,
      "name": "floatBufferViews",
      "target": 34962
    },
    {
      "buffer": 0,
      "byteLength": 128,
      "byteOffset": 80288,
      "name": "floatBufferViews"
    }
  ],
  "buffers": [
    {
      "byteLength": 80416,
      "uri": "scene.bin"
    }
  ],
  "images": [
    {
      "uri": "textures/3_-_Default_baseColor.png"
    },
    {
      "uri": "textures/Bo55a03C_baseColor.png"
    }
  ],
  "materials": [
    {
      "doubleSided": true,
      "name": "3_-_Default",
      "pbrMetallicRoughness": {
        "baseColorTexture": {
          "index": 0
        },
        "metallicFactor": 0.0,
        "roughnessFactor": 0.6
      }
    },
    {
      "doubleSided": true,
      "name": "Bo55a03C",
      "pbrMetallicRoughness": {
        "baseColorTexture": {
          "index": 1
        },
        "metallicFactor": 0.0,
        "roughnessFactor": 0.6
      }
    }
  ],
  "meshes": [
    {
      "name": "Box01_0_3 - Default_0",
      "primitives": [
        {
          "attributes": {
            "JOINTS_0": 9,
            "NORMAL": 1,
            "POSITION": 0,
            "TEXCOORD_0": 2,
            "WEIGHTS_0": 10
          },
          "indices": 3,
          "material": 0,
          "mode": 4
        }
      ]
    },
    {
      "name": "Box01_0_Bo55a03C_0",
      "primitives": [
        {
          "attributes": {
            "JOINTS_0": 11,
            "NORMAL": 5,
            "POSITION": 4,
            "TEXCOORD_0": 6,
            "WEIGHTS_0": 12
          },
          "indices": 7,
          "material": 1,
          "mode": 4
        }
      ]
    }
  ],
  "nodes": [
    {
      "children": [
        1
      ],
      "matrix": [
        1.0,
        0.0,
        0.0,
        0.0,
        0.0,
        2.220446049250313e-16,
        -1.0,
        0.0,
        0.0,
        1.0,
        2.220446049250313e-16,
        0.0,
        0.0,
        0.0,
        0.0,
        1.0
      ],
      "name": "Sketchfab_model"
    },
    {
      "children": [
        2
      ],
      "matrix": [
        1.0,
        0.0,
        0.0,
        0.0,
        0.0,
        0.0,
        1.0,
        0.0,
        0.0,
        -1.0,
        0.0,
        0.0,
        0.0,
        0.0,
        0.0,
        1.0
      ],
      "name": "a14aaa416bad41a9b80a6d0d7aba60e0.fbx"
    },
    {
      "children": [
        3
      ],
      "name": "RootNode"
    },
    {
      "children": [
        4
      ],
      "matrix": [
        0.9999997615814209,
        0.0,
        0.0,
        0.0,
        0.0,
        2.220445519854721e-16,
        -0.9999997615814209,
        0.0,
        0.0,
        0.9999999403953552,
        2.220445916901415e-16,
        0.0,
        -4.6275177001953125,
        2.857809066772461,
        6.859291076660156,
        1.0
      ],
      "name": "Ruin_B"
    },
    {
      "children": [
        5,
        7,
        8,
        6
      ],
      "name": "Object_4"
    },
    {
      "children": [
        9
      ],
      "name": "_rootJoint"
    },
    {
      "matrix": [
        0.9999999202803926,
        6.332653111206128e-14,
        2.278635152785924e-08,
        0.0,
        2.2786351389594183e-08,
        -4.371140401553188e-08,
        -0.9999999142123823,
        0.0,
        -6.233050820466207e-14,
        0.9999999298378545,
        -4.371140469854469e-08,
        0.0,
        -1.1823702124047486e-06,
        -2.8460759304849148e-08,
        1.8322850792173995e-06,
        1.0
      ],
      "name": "Object_6"
    },
    {
      "mesh": 0,
      "name": "Object_7",
      "skin": 0
    },
    {
      "mesh": 1,
      "name": "Object_8",
      "skin": 0
    },
    {
      "name": "Box01_00",
      "rotation": [
        0.707106351852417,
        0.0,
        0.0,
        0.7071071863174438
      ],
      "scale": [
        1.0,
        0.9999995231628418,
        0.9999998807907104
      ],
      "translation": [
        0.0,
        -5.684341886080802e-14,
        0.0
      ]
    }
  ],
  "samplers": [
    {
      "magFilter": 9729,
      "minFilter": 9987,
      "wrapS": 10497,
      "wrapT": 10497
    }
  ],
  "scene": 0,
  "scenes": [
    {
      "name": "Sketchfab_Scene",
      "nodes": [
        0
      ]
    }
  ],
  "skins": [
    {
      "inverseBindMatrices": 8,
      "joints": [
        5,
        9
      ],
      "skeleton": 5
    }
  ],
  "textures": [
    {
      "sampler": 0,
      "source": 0
    },
    {
      "sampler": 0,
      "source": 1
    }
  ]
}
