{
  "accessors": [
    {
      "bufferView": 2,
      "componentType": 5126,
      "count": 65532,
      "max": [
        -0.5655379891395569,
        -4.184302806854248,
        -3.3557279109954834
      ],
      "min": [
        -5.702829837799072,
        -9.182632446289063,
        -24.83485221862793
      ],
      "type": "VEC3"
    },
    {
      "bufferView": 2,
      "byteOffset": 786384,
      "componentType": 5126,
      "count": 65532,
      "max": [
        0.9992366433143616,
        0.9999557733535767,
        0.9999935030937195
      ],
      "min": [
        -0.9999890923500061,
        -0.9999998807907104,
        -0.9999668598175049
      ],
      "type": "VEC3"
    },
    {
      "bufferView": 1,
      "componentType": 5126,
      "count": 65532,
      "max": [
        0.9862779974937439,
        0.9977650046348572
      ],
      "min": [
        0.0011080000549554825,
        0.007224000059068203
      ],
      "type": "VEC2"
    },
    {
      "bufferView": 0,
      "componentType": 5125,
      "count": 336315,
      "type": "SCALAR"
    },
    {
      "bufferView": 2,
      "byteOffset": 1572768,
      "componentType": 5126,
      "count": 65532,
      "max": [
        -0.674081027507782,
        -5.721069812774658,
        9.802267074584961
      ],
      "min": [
        -5.725350856781006,
        -9.138753890991211,
        -24.816612243652344
      ],
      "type": "VEC3"
    },
    {
      "bufferView": 2,
      "byteOffset": 2359152,
      "componentType": 5126,
      "count": 65532,
      "max": [
        0.9973615407943726,
        0.750472366809845,
        0.9998605251312256
      ],
      "min": [
        -0.9999972581863403,
        -0.9999998807907104,
        -0.99977046251297
      ],
      "type": "VEC3"
    },
    {
      "bufferView": 1,
      "byteOffset": 524256,
      "componentType": 5126,
      "count": 65532,
      "max": [
        0.9792330265045166,
        0.9753320217132568
      ],
      "min": [
        0.06429299712181091,
        0.005890999920666218
      ],
      "type": "VEC2"
    },
    {
      "bufferView": 0,
      "byteOffset": 1345260,
      "componentType": 5125,
      "count": 326613,
      "type": "SCALAR"
    },
    {
      "bufferView": 2,
      "byteOffset": 3145536,
      "componentType": 5126,
      "count": 65532,
      "max": [
        -0.7572299838066101,
        -6.819911956787109,
        9.618478775024414
      ],
      "min": [
        -5.704362869262695,
        -9.070467948913574,
        -24.816612243652344
      ],
      "type": "VEC3"
    },
    {
      "bufferView": 2,
      "byteOffset": 3931920,
      "componentType": 5126,
      "count": 65532,
      "max": [
        0.9981619715690613,
        0.9823567867279053,
        0.9998515248298645
      ],
      "min": [
        -0.9997852444648743,
        -0.999999463558197,
        -0.9999558925628662
      ],
      "type": "VEC3"
    },
    {
      "bufferView": 1,
      "byteOffset": 1048512,
      "componentType": 5126,
      "count": 65532,
      "max": [
        0.9615089893341064,
        0.9966660141944885
      ],
      "min": [
        0.004461999982595444,
        0.004832000005990267
      ],
      "type": "VEC2"
    },
    {
      "bufferView": 0,
      "byteOffset": 2651712,
      "componentType": 5125,
      "count": 326001,
      "type": "SCALAR"
    },
    {
      "bufferView": 2,
      "byteOffset": 4718304,
      "componentType": 5126,
      "count": 65532,
      "max": [
        -0.6543470025062561,
        -5.819204807281494,
        10.989668846130371
      ],
      "min": [
        -5.70359992980957,
        -8.901102066040039,
        -24.833879470825195
      ],
      "type": "VEC3"
    },
    {
      "bufferView": 2,
      "byteOffset": 5504688,
      "componentType": 5126,
      "count": 65532,
      "max": [
        0.9999893307685852,
        0.9648786187171936,
        0.9999227523803711
      ],
      "min": [
        -0.9993098974227905,
        -0.9999889731407166,
        -0.99977046251297
      ],
      "type": "VEC3"
    },
    {
      "bufferView": 1,
      "byteOffset": 1572768,
      "componentType": 5126,
      "count": 65532,
      "max": [
        0.9858750104904175,
        0.9992889761924744
      ],
      "min": [
        0.0035500000230968,
        0.005014999769628048
      ],
      "type": "VEC2"
    },
    {
      "bufferView": 0,
      "byteOffset": 3955716,
      "componentType": 5125,
      "count": 258075,
      "type": "SCALAR"
    },
    {
      "bufferView": 2,
      "byteOffset": 6291072,
      "componentType": 5126,
      "count": 65532,
      "max": [
        -0.5327439904212952,
        -5.657832145690918,
        10.665387153625488
      ],
      "min": [
        -5.708834171295166,
        -7.971580982208252,
        -24.834505081176758
      ],
      "type": "VEC3"
    },
    {
      "bufferView": 2,
      "byteOffset": 7077456,
      "componentType": 5126,
      "count": 65532,
      "max": [
        1.0,
        0.9879124760627747,
        0.9999611377716064
      ],
      "min": [
        -0.9999989867210388,
        -0.9997645020484924,
        -0.9999366402626038
      ],
      "type": "VEC3"
    },
    {
      "bufferView": 1,
      "byteOffset": 2097024,
      "componentType": 5126,
      "count": 65532,
      "max": [
        0.9895579814910889,
        0.9992669820785522
      ],
      "min": [
        0.0038479999639093876,
        0.010611999779939651
      ],
      "type": "VEC2"
    },
    {
      "bufferView": 0,
      "byteOffset": 4988016,
      "componentType": 5125,
      "count": 304656,
      "type": "SCALAR"
    },
    {
      "bufferView": 2,
      "byteOffset": 7863840,
      "componentType": 5126,
      "count": 65532,
      "max": [
        -0.546521008014679,
        -4.366844177246094,
        11.069903373718262
      ],
      "min": [
        -5.725350856781006,
        -7.624431133270264,
        -24.833553314208984
      ],
      "type": "VEC3"
    },
    {
      "bufferView": 2,
      "byteOffset": 8650224,
      "componentType": 5126,
      "count": 65532,
      "max": [
        1.0,
        0.9999143481254578,
        0.9997983574867249
      ],
      "min": [
        -0.9999996423721313,
        -0.9998565316200256,
        -0.9999488592147827
      ],
      "type": "VEC3"
    },
    {
      "bufferView": 1,
      "byteOffset": 2621280,
      "componentType": 5126,
      "count": 65532,
      "max": [
        0.9987109899520874,
        0.9996700286865234
      ],
      "min": [
        0.004344000015407801,
        0.0036299999337643385
      ],
      "type": "VEC2"
    },
    {
      "bufferView": 0,
      "byteOffset": 6206640,
      "componentType": 5125,
      "count": 299718,
      "type": "SCALAR"
    },
    {
      "bufferView": 2,
      "byteOffset": 9436608,
      "componentType": 5126,
      "count": 65532,
      "max": [
        -0.5394740104675293,
        -4.179542064666748,
        10.946393966674805
      ],
      "min": [
        -5.703226089477539,
        -7.198513031005859,
        -24.833984375
      ],
      "type": "VEC3"
    },
    {
      "bufferView": 2,
      "byteOffset": 10222992,
      "componentType": 5126,
      "count": 65532,
      "max": [
        0.9999974966049194,
        0.9997512102127075,
        0.9998695254325867
      ],
      "min": [
        -0.9999969005584717,
        -0.9297047853469849,
        -0.9946893453598022
      ],
      "type": "VEC3"
    },
    {
      "bufferView": 1,
      "byteOffset": 3145536,
      "componentType": 5126,
      "count": 65532,
      "max": [
        0.998553991317749,
        0.9913880228996277
      ],
      "min": [
        0.00431999983265996,
        0.0016129999421536922
      ],
      "type": "VEC2"
    },
    {
      "bufferView": 0,
      "byteOffset": 7405512,
      "componentType": 5125,
      "count": 328020,
      "type": "SCALAR"
    },
    {
      "bufferView": 2,
      "byteOffset": 11009376,
      "componentType": 5126,
      "count": 65532,
      "max": [
        -0.5736899971961975,
        -4.1649699211120605,
        10.891073226928711
      ],
      "min": [
        -5.657362937927246,
        -6.9813408851623535,
        -24.83394432067871
      ],
      "type": "VEC3"
    },
    {
      "bufferView": 2,
      "byteOffset": 11795760,
      "componentType": 5126,
      "count": 65532,
      "max": [
        0.9999400973320007,
        0.9999769926071167,
        0.9999755024909973
      ],
      "min": [
        -0.9999684691429138,
        -0.9858821034431458,
        -0.9997290968894958
      ],
      "type": "VEC3"
    },
    {
      "bufferView": 1,
      "byteOffset": 3669792,
      "componentType": 5126,
      "count": 65532,
      "max": [
        0.9924439787864685,
        0.999364972114563
      ],
      "min": [
        0.0038759999442845583,
        0.0041970000602304935
      ],
      "type": "VEC2"
    },
    {
      "bufferView": 0,
      "byteOffset": 8717592,
      "componentType": 5125,
      "count": 325062,
      "type": "SCALAR"
    },
    {
      "bufferView": 2,
      "byteOffset": 12582144,
      "componentType": 5126,
      "count": 65532,
      "max": [
        -0.5925840139389038,
        -4.1390910148620605,
        11.004439353942871
      ],
      "min": [
        -5.568028926849365,
        -8.686574935913086,
        -24.834596633911133
      ],
      "type": "VEC3"
    },
    {
      "bufferView": 2,
      "byteOffset": 13368528,
      "componentType": 5126,
      "count": 65532,
      "max": [
        0.9999487400054932,
        1.0,
        0.9996731281280518
      ],
      "min": [
        -0.9995734691619873,
        -0.9880562424659729,
        -0.9997332096099854
      ],
      "type": "VEC3"
    },
    {
      "bufferView": 1,
      "byteOffset": 4194048,
      "componentType": 5126,
      "count": 65532,
      "max": [
        0.9920349717140198,
        0.9995549917221069
      ],
      "min": [
        0.001145999995060265,
        0.007416000124067068
      ],
      "type": "VEC2"
    },
    {
      "bufferView": 0,
      "byteOffset": 10017840,
      "componentType": 5125,
      "count": 303003,
      "type": "SCALAR"
    },
    {
      "bufferView": 2,
      "byteOffset": 14154912,
      "componentType": 5126,
      "count": 56061,
      "max": [
        -0.523859977722168,
        -5.447078227996826,
        11.053277015686035
      ],
      "min": [
        -5.7070817947387695,
        -7.115845203399658,
        -24.833986282348633
      ],
      "type": "VEC3"
    },
    {
      "bufferView": 2,
      "byteOffset": 14827644,
      "componentType": 5126,
      "count": 56061,
      "max": [
        0.9999998807907104,
        0.9990590214729309,
        0.9999427795410156
      ],
      "min": [
        -0.999999463558197,
        -0.9998565316200256,
        -0.9993718862533569
      ],
      "type": "VEC3"
    },
    {
      "bufferView": 1,
      "byteOffset": 4718304,
      "componentType": 5126,
      "count": 56061,
      "max": [
        0.9919750094413757,
        0.9997569918632507
      ],
      "min": [
        0.004031999967992306,
        0.0033370000310242176
      ],
      "type": "VEC2"
    },
    {
      "bufferView": 0,
      "byteOffset": 11229852,
      "componentType": 5125,
      "count": 192537,
      "type": "SCALAR"
    }
  ],
  "asset": {
    "extras": {
      "author": "The British Museum (https://sketchfab.com/britishmuseum)",
      "license": "CC-BY-NC-SA-4.0 (http://creativecommons.org/licenses/by-nc-sa/4.0/)",
      "source": "https://sketchfab.com/3d-models/railing-pillar-from-the-amaravati-stupa-084ae534eb93408f84a31cc519401547",
      "title": "Railing pillar from the Amaravati Stupa"
    },
    "generator": "Sketchfab-12.63.0",
    "version": "2.0"
  },
  "bufferViews": [
    {
      "buffer": 0,
      "byteLength": 12000000,
      "name": "floatBufferViews",
      "target": 34963
    },
    {
      "buffer": 0,
      "byteLength": 5166792,
      "byteOffset": 12000000,
      "byteStride": 8,
      "name": "floatBufferViews",
      "target": 34962
    },
    {
      "buffer": 0,
      "byteLength": 15500376,
      "byteOffset": 17166792,
      "byteStride": 12,
      "name": "floatBufferViews",
      "target": 34962
    }
  ],
  "buffers": [
    {
      "byteLength": 32667168,
      "uri": "scene.bin"
    }
  ],
  "extensionsUsed": [
    "KHR_materials_unlit"
  ],
  "images": [
    {
      "uri": "textures/Scene_-_Root_baseColor.jpeg"
    }
  ],
  "materials": [
    {
      "doubleSided": true,
      "extensions": {
        "KHR_materials_unlit": {}
      },
      "name": "Scene_-_Root",
      "pbrMetallicRoughness": {
        "baseColorTexture": {
          "index": 0
        },
        "metallicFactor": 0.0
      }
    }
  ],
  "meshes": [
    {
      "name": "Object_0",
      "primitives": [
        {
          "attributes": {
            "NORMAL": 1,
            "POSITION": 0,
            "TEXCOORD_0": 2
          },
          "indices": 3,
          "material": 0,
          "mode": 4
        }
      ]
    },
    {
      "name": "Object_1",
      "primitives": [
        {
          "attributes": {
            "NORMAL": 5,
            "POSITION": 4,
            "TEXCOORD_0": 6
          },
          "indices": 7,
          "material": 0,
          "mode": 4
        }
      ]
    },
    {
      "name": "Object_2",
      "primitives": [
        {
          "attributes": {
            "NORMAL": 9,
            "POSITION": 8,
            "TEXCOORD_0": 10
          },
          "indices": 11,
          "material": 0,
          "mode": 4
        }
      ]
    },
    {
      "name": "Object_3",
      "primitives": [
        {
          "attributes": {
            "NORMAL": 13,
            "POSITION": 12,
            "TEXCOORD_0": 14
          },
          "indices": 15,
          "material": 0,
          "mode": 4
        }
      ]
    },
    {
      "name": "Object_4",
      "primitives": [
        {
          "attributes": {
            "NORMAL": 17,
            "POSITION": 16,
            "TEXCOORD_0": 18
          },
          "indices": 19,
          "material": 0,
          "mode": 4
        }
      ]
    },
    {
      "name": "Object_5",
      "primitives": [
        {
          "attributes": {
            "NORMAL": 21,
            "POSITION": 20,
            "TEXCOORD_0": 22
          },
          "indices": 23,
          "material": 0,
          "mode": 4
        }
      ]
    },
    {
      "name": "Object_6",
      "primitives": [
        {
          "attributes": {
            "NORMAL": 25,
            "POSITION": 24,
            "TEXCOORD_0": 26
          },
          "indices": 27,
          "material": 0,
          "mode": 4
        }
      ]
    },
    {
      "name": "Object_7",
      "primitives": [
        {
          "attributes": {
            "NORMAL": 29,
            "POSITION": 28,
            "TEXCOORD_0": 30
          },
          "indices": 31,
          "material": 0,
          "mode": 4
        }
      ]
    },
    {
      "name": "Object_8",
      "primitives": [
        {
          "attributes": {
            "NORMAL": 33,
            "POSITION": 32,
            "TEXCOORD_0": 34
          },
          "indices": 35,
          "material": 0,
          "mode": 4
        }
      ]
    },
    {
      "name": "Object_9",
      "primitives": [
        {
          "attributes": {
            "NORMAL": 37,
            "POSITION": 36,
            "TEXCOORD_0": 38
          },
          "indices": 39,
          "material": 0,
          "mode": 4
        }
      ]
    }
  ],
  "nodes": [
    {
      "children": [
        1
      ],
      "matrix": [
        0.10364990681409836,
        0.0,
        0.0,
        0.0,
        0.0,
        2.301490260905278e-17,
        -0.10364990681409836,
        0.0,
        0.0,
        0.10364990681409836,
        2.301490260905278e-17,
        0.0,
        0.0,
        0.0,
        0.0,
        1.0
      ],
      "name": "Sketchfab_model"
    },
    {
      "children": [
        2,
        3,
        4,
        5,
        6,
        7,
        8,
        9,
        10,
        11
      ],
      "name": "pillar.obj.cleaner.materialmerger.gles"
    },
    {
      "mesh": 0,
      "name": "Object_2"
    },
    {
      "mesh": 1,
      "name": "Object_3"
    },
    {
      "mesh": 2,
      "name": "Object_4"
    },
    {
      "mesh": 3,
      "name": "Object_5"
    },
    {
      "mesh": 4,
      "name": "Object_6"
    },
    {
      "mesh": 5,
      "name": "Object_7"
    },
    {
      "mesh": 6,
      "name": "Object_8"
    },
    {
      "mesh": 7,
      "name": "Object_9"
    },
    {
      "mesh": 8,
      "name": "Object_10"
    },
    {
      "mesh": 9,
      "name": "Object_11"
    }
  ],
  "samplers": [
    {
      "magFilter": 9729,
      "minFilter": 9987,
      "wrapS": 10497,
      "wrapT": 10497
    }
  ],
  "scene": 0,
  "scenes": [
    {
      "name": "Sketchfab_Scene",
      "nodes": [
        0
      ]
    }
  ],
  "textures": [
    {
      "sampler": 0,
      "source": 0
    }
  ]
}
